#!OML:ASF H:\ColoradoDance\Project 1\Capture day 1\Session 8\male.ASF
:FULLY-SPECIFIED
:DEGREES
123
upperback -0.020253 -2.130550 3.977080
rfoot 23.422899 -15.600500
lradius 20.477200
lthumb -19.623800 765.145996
rradius 24.148500
lwrist 32.547901
rhand -47.356899 -11.150600
rhumerus -415.532990 -31.694700 383.365997
lowerneck -6.384060 9.501540 11.416000
lhand -46.913200 376.115997
ltibia 31.670799
head 3.251150 6.315950 0.318229
rwrist 350.520996
lfingers 7.125020
rtoes 0.469924
lowerback -1.645120 -1.498440 7.732110
rfingers 7.125020
lclavicle -0.000000 -0.000000
upperneck 5.360260 11.658500 5.022060
rfemur 12.621000 -16.794300 7.834290
thorax 0.772097 -1.020430 -0.270769
rclavicle -0.000000 -0.000000
rtibia 64.366997
lfoot -93.412300 21.000999
lhumerus 70.175697 385.070007 -263.847992
rthumb -20.050400 -40.136002
root 6.128940 19.601999 -2.782860 -36.720699 53.447102 -90.955299
ltoes 47.441898
lfemur -62.094299 -25.283199 56.251099
124
upperback -0.159065 -2.093980 3.986860
rfoot 23.800200 -15.206900
lradius 20.270000
lthumb -19.276899 765.828979
rradius 23.287600
lwrist 32.623001
rhand -48.092602 -11.833900
rhumerus -416.519012 -31.403500 383.612000
lowerneck -6.536990 9.459040 11.287700
lhand -46.552399 376.765015
ltibia 34.923401
head 3.726710 6.280860 0.367380
rwrist 348.871002
lfingers 7.125020
rtoes 1.320210
lowerback -2.106360 -1.446900 7.250510
rfingers 7.125020
lclavicle 0.000000 0.000000
upperneck 6.633000 11.493900 4.954420
rfemur 11.651700 -16.778099 7.845660
thorax 0.907378 -1.003650 -0.006135
rclavicle 0.000000 0.000000
rtibia 65.032097
lfoot -86.364899 20.177700
lhumerus 69.761398 385.675995 -264.294006
rthumb -20.757401 -40.743698
root 6.197710 19.511000 -2.912650 -35.547699 52.986801 -88.522400
ltoes 46.122299
lfemur -60.699699 -22.667000 50.610199
125
upperback 0.028097 -2.527090 4.293030
rfoot 22.283600 -13.348200
lradius 19.917500
lthumb -19.153799 765.445984
rradius 22.696199
lwrist 31.193300
rhand -47.965302 -9.601840
rhumerus -419.588013 -29.186800 383.667999
lowerneck -7.068800 9.368460 10.834100
lhand -46.424301 376.368988
ltibia 34.518398
head 3.388330 6.159930 0.220081
rwrist 350.792999
lfingers 7.125020
rtoes -1.821950
lowerback -1.143710 -1.839540 7.061700
rfingers 7.125020
lclavicle 0.000000 -0.000000
upperneck 5.381370 11.431000 4.361730
rfemur 10.008200 -16.576799 7.758940
thorax 0.559276 -1.227110 0.433878
rclavicle 0.000000 -0.000000
rtibia 64.267700
lfoot -73.396599 27.587601
lhumerus 70.864502 385.670990 -265.488007
rthumb -20.635000 -38.525002
root 6.086960 19.542101 -2.959400 -37.027802 54.089001 -89.547401
ltoes 40.900600
lfemur -61.056301 -24.941700 52.903801
126
upperback 0.641103 -0.846558 5.014100
rfoot 19.635099 -11.009600
lradius 18.289200
lthumb -18.899000 765.320007
rradius 21.194099
lwrist 27.741800
rhand -45.536999 -11.025800
rhumerus -420.981995 -28.466600 378.058990
lowerneck -7.858010 9.201470 9.837830
lhand -46.159401 376.217987
ltibia 35.790600
head 3.402370 5.973110 0.014273
rwrist 351.752014
lfingers 7.125020
rtoes -6.850380
lowerback 0.441819 -0.697258 6.864510
rfingers 7.125020
lclavicle -0.000000 0.000000
upperneck 4.977340 11.244600 3.192570
rfemur 8.926390 -12.676800 7.270870
thorax 0.387096 -0.369712 1.323130
rclavicle -0.000000 0.000000
rtibia 59.041100
lfoot -69.534897 33.254200
lhumerus 71.167900 386.869995 -267.812988
rthumb -18.300400 -40.185001
root 6.081930 19.575399 -3.000670 -34.505600 52.485298 -85.936798
ltoes 40.254799
lfemur -58.877998 -22.919500 49.242298
127
upperback 1.049860 0.359741 5.606610
rfoot 20.010500 -7.458510
lradius 18.882200
lthumb -19.665100 765.239990
rradius 19.650700
lwrist 27.212601
rhand -42.130402 -12.694500
rhumerus -424.700012 -27.495001 370.421997
lowerneck -10.073200 8.766430 8.998800
lhand -46.956100 376.214996
ltibia 34.932400
head 3.611460 5.519890 -0.515224
rwrist 352.872986
lfingers 7.125020
rtoes -6.558750
lowerback 3.387140 -0.049249 7.134560
rfingers 7.125020
lclavicle -0.000000 -0.000000
upperneck 4.164620 10.609500 1.025530
rfemur 7.887130 -14.954900 7.249780
thorax -0.816630 0.227219 1.776510
rclavicle -0.000000 -0.000000
rtibia 58.862598
lfoot -71.175697 33.639198
lhumerus 70.820602 386.014008 -272.381989
rthumb -15.020800 -42.129601
root 6.138170 19.645800 -3.047320 -34.021198 52.236801 -85.237503
ltoes 42.056801
lfemur -58.417702 -23.642799 49.077400
128
upperback 0.681086 0.485184 5.588920
rfoot 20.478500 -7.319900
lradius 21.134100
lthumb -17.483601 764.898987
rradius 16.137400
lwrist 29.160900
rhand -30.899300 -14.294200
rhumerus -428.912994 -22.313200 350.837006
lowerneck -11.669500 7.006980 6.512880
lhand -44.688202 375.665985
ltibia 38.365101
head 2.164900 4.382970 -0.630657
rwrist 359.445007
lfingers 7.125020
rtoes -9.527090
lowerback 7.401220 -0.254023 5.968170
rfingers 7.125020
lclavicle -0.000000 -0.000000
upperneck -0.404257 8.615750 -0.014840
rfemur 8.037460 -17.569300 10.762900
thorax -3.459700 0.242936 2.406870
rclavicle -0.000000 -0.000000
rtibia 58.276402
lfoot -82.351898 30.231001
lhumerus 71.209503 383.066986 -280.903015
rthumb -4.185870 -44.232800
root 6.015210 19.349899 -2.984670 -34.668800 56.789101 -87.479698
ltoes 48.611500
lfemur -66.890099 -18.735901 42.428101
129
upperback 1.853490 1.172140 6.149960
rfoot 21.106100 -7.994010
lradius 26.802401
lthumb -19.081499 762.276978
rradius 17.719400
lwrist 35.436401
rhand -22.485399 -3.505520
rhumerus -420.377014 -3.130400 299.218994
lowerneck -12.006400 6.947690 2.560600
lhand -46.349201 373.192993
ltibia 31.816999
head 1.520380 4.640800 0.345340
rwrist 354.066010
lfingers 7.125020
rtoes -5.715070
lowerback 7.550840 0.405805 4.032200
rfingers 7.125020
lclavicle 0.000000 0.000000
upperneck -1.770010 9.077070 1.034170
rfemur 4.571120 -23.618099 13.938200
thorax -2.370970 0.631551 4.007240
rclavicle 0.000000 0.000000
rtibia 56.839600
lfoot -92.664101 21.154800
lhumerus 68.203201 383.759003 -291.497986
rthumb 3.940060 -33.448799
root 5.731350 19.506300 -3.114290 -28.916300 56.103199 -84.775101
ltoes 48.533199
lfemur -65.994698 -21.459400 50.136600
130
upperback 3.589140 1.602990 6.975540
rfoot 18.219101 -6.516930
lradius 29.589600
lthumb -14.895800 759.429016
rradius 22.245501
lwrist 33.631100
rhand 6.829010 13.342800
rhumerus -420.292999 8.236370 275.252991
lowerneck -12.570100 5.736830 -0.337382
lhand -42.000702 369.984985
ltibia 30.613199
head 0.933609 4.056010 0.450926
rwrist 347.076996
lfingers 7.125020
rtoes -8.847380
lowerback 9.547830 0.706887 2.954150
rfingers 7.125020
lclavicle 0.000000 0.000000
upperneck -3.605640 7.893610 0.134471
rfemur 2.954650 -22.959499 15.099500
thorax -1.742670 0.868269 5.442910
rclavicle 0.000000 0.000000
rtibia 57.127499
lfoot -72.760101 31.628000
lhumerus 69.816803 383.782990 -295.687012
rthumb 32.112900 -13.840400
root 5.398060 19.577700 -3.391240 -29.491400 59.871799 -85.396202
ltoes 36.327000
lfemur -68.740700 -23.951000 53.559200
